#!OML:ASF F:\VICON\USERDATA\INSTALL\rory3\rory3.ASF
:FULLY-SPECIFIED
:DEGREES
130
root -0.4954401964179453 18.116294881965224 34.25684509670255 2.1762064593946295 2.361534106814979 -2.9135910882352425
lfemur -33.82222014503707 -1.8097477092966687 -21.12924070557856
ltibia 5.1261351034927145
lfoot 7.287769064814073 -14.944014498415498
ltoes -28.19645192070446
rfemur 7.562547710374918 3.8063028737525304 32.85701868686782
rtibia -3.726290189118764
rfoot 33.83471003410967 -2.885851595488524
rtoes 0.7646698061131145
lowerback 1.0 -0.8190934073868839 0.020808501493723375
upperback -2.5358889168659755 1.7091529736533715 0.744669623565269
thorax -6.362955537961941 0.32004697083150696 0.4093336918654304
lowerneck -15.771072892937855 -4.610032585857935 -2.4892999260081905
upperneck 18.92743374164028 -5.195285752557712 1.0609527588775292
head 9.07560215162303 -2.804944913811579 0.20161447607006822
lclavicle 2.6523854011719104e-14 2.9657803524380375e-14
lhumerus -68.0898672972501 -7.502005962743339 95.66482349911824
lradius 119.36133771801386
lwrist 52.61981708671191
lhand -35.75232790508046 4.072246064762906
lfingers nan
lthumb -9.523280300632031 33.85031382342365
rclavicle 3.0450423702892717e-14 3.1816736532954476e-14
rhumerus -57.22746505385153 7.801173971047077 -93.52425241295298
rradius 135.23994476316463
rwrist -8.065472356337263
rhand -21.349881893245758 1.0
rfingers nan
rthumb 4.967664474364863 11.689298296724296
131
root -0.4979046370864266 18.100597332436774 34.67550395852684 2.1888225021675285 2.1907660580604165 -2.994781545346739
lfemur -32.73514435643868 -1.529094075977905 -21.50783648828333
ltibia 1.3550726176727252
lfoot 7.272050522874217 -15.227206473223072
ltoes -28.26270262572085
rfemur 7.4408916538496435 4.411228061104971 33.20775720133159
rtibia -0.6008390160903403
rfoot 31.909803611175768 -2.9866916760941438
rtoes 0.01871703681630077
lowerback 1.0 -0.863173301551516 -0.020032315485537522
upperback -2.509612661130905 1.755568933211651 0.7175800795592093
thorax -6.415140203275202 0.3055326659955122 0.4082455792579138
lowerneck -16.442607627351347 -4.70518109188424 -2.5376055137500995
upperneck 18.89766798332828 -5.133375374053383 1.0331279747760738
head 9.181818494189457 -2.76940487407592 0.21992789409074248
lclavicle 1.2279001817140782e-14 -1.6930760113353735e-14
lhumerus -68.34888710505155 -6.920246005045919 95.30597265488744
lradius 120.10793533114389
lwrist 51.27002616382157
lhand -35.37159284406555 3.015064626889413
lfingers nan
lthumb -9.15490277801793 32.761139081579316
rclavicle 1.6093350042378924e-14 -1.500518336596424e-14
rhumerus -57.52187576649605 7.9617234781247515 -93.75301332526367
rradius 134.44734594162426
rwrist -9.99464324975634
rhand -21.456697087875458 1.0
rfingers nan
rthumb 4.885546745069634 11.210583765454583
132
root -0.4977008738011508 18.07294273852431 35.56304400382337 2.0232691674995262 2.2970771851749703 -2.910543892320427
lfemur -31.557320508996746 -1.1349417114804836 -22.19135134259781
ltibia -1.887273430572435
lfoot 7.69994175136223 -15.531864257035913
ltoes -28.51223604920341
rfemur 7.139391447738614 4.723344200876394 33.35788289259164
rtibia 2.77183547082997
rfoot 30.2873409033085 -2.902701490132544
rtoes -0.3707334577970518
lowerback 1.0 -0.9552379653008682 -0.1610301911202272
upperback -2.3029734537877626 1.7199986962685032 0.6653859345548394
thorax -6.341811013256556 0.26506317142762187 0.45304720042049007
lowerneck -17.0329890062377 -4.670215453575543 -2.422916240867038
upperneck 18.436611053773753 -4.939771725285545 0.9381316728592521
head 9.101549991075736 -2.6658284633046962 0.20092376941851248
lclavicle 2.1347815850825368e-14 8.044378680645793e-15
lhumerus -68.13969288697064 -6.504004639820176 94.99567781628912
lradius 120.57351648520047
lwrist 50.00922004898197
lhand -34.83654096698427 2.484149583152379
lfingers nan
lthumb -8.616362223900953 32.249016241683755
rclavicle 2.5012557432571078e-14 9.735456169345101e-15
rhumerus -57.74528846671224 8.01505049349566 -93.7263169715403
rradius 133.56386383672762
rwrist -11.337700859349354
rhand -21.11018684303336 1.0
rfingers nan
rthumb 5.238047620078319 10.735849724441483
133
root -0.4960666286574492 18.04784938754623 35.9787925801049 1.8219141429298618 2.1446374796672014 -2.832907741759673
lfemur -30.39858144180017 -0.5063428430879995 -22.882035232499923
ltibia -4.266995542511538
lfoot 8.527464795504843 -16.161041288540734
ltoes -28.79798174634506
rfemur 6.77941843624285 5.173554052026057 33.45773993661394
rtibia 6.282178088810333
rfoot 29.59985130190636 -2.9774981190974037
rtoes 1.130769422054812
lowerback 1.0 -0.9967718370436889 -0.3560397667600106
upperback -2.1107863998867447 1.7546136164889494 0.6514684984545751
thorax -6.280248034995788 0.2556355446517805 0.530770051202377
lowerneck -17.700043905849245 -4.606755657343557 -2.300553647190062
upperneck 18.35530586931809 -4.76765110655558 0.8251489078998264
head 9.140293072991327 -2.5738938160540927 0.17285901964041867
lclavicle -5.26019667099255e-14 -3.094064266967015e-14
lhumerus -67.86112919919577 -6.061968599034262 94.77046293164398
lradius 121.08874505116795
lwrist 48.70251315553078
lhand -33.80012237560683 1.0511894919188034
lfingers nan
lthumb -7.637741781782068 30.822207510933797
rclavicle -4.910108407505026e-14 -2.899043993439414e-14
rhumerus -58.139264460395204 7.969573853922386 -93.79530985015468
rradius 132.75267183397273
rwrist -11.89156670480003
rhand -20.53710123715591 1.0
rfingers nan
rthumb 5.81853627441011 10.95236722401065
134
root -0.5000357800155432 18.023555853001305 35.8486251198659 1.7761846048725802 2.0079773608883658 -3.095362250445034
lfemur -29.82214675087142 0.045288609661302215 -23.200175298101115
ltibia -5.841274537288442
lfoot 10.242131336958959 -16.669756474065423
ltoes -28.493603567823442
rfemur 6.126948472842802 5.701267550821605 33.96641371915914
rtibia 9.99674375220188
rfoot 28.912979395615093 -3.375698788341198
rtoes 1.901442045470005
lowerback 1.0 -1.0371396884922508 -0.19362618069599535
upperback -1.9791621158018318 1.805123393755893 0.7156645079904721
thorax -6.085093508176174 0.24942681019546661 0.52910659022058
lowerneck -18.371600416267476 -4.603074321597456 -2.1236064373498404
upperneck 18.253781308541257 -4.658439419259069 0.6087720040944644
head 9.15357205134124 -2.5146956202058304 0.10181855464517753
lclavicle 1.92779747497798e-14 2.5756846488993474e-14
lhumerus -67.62521369540801 -5.588788940742987 94.62546840790107
lradius 121.82644167539043
lwrist 47.34256771075399
lhand -32.773390497456695 -1.8229791488294247
lfingers nan
lthumb -6.635985988001703 27.937983908427192
rclavicle 2.2073895631124744e-14 2.7123223844832432e-14
rhumerus -58.50337798112147 7.837627493560349 -93.71220395774692
rradius 131.8668561440624
rwrist -12.222794708831563
rhand -20.16942760366904 1.0
rfingers nan
rthumb 6.180531621017483 10.91906300434232
135
root -0.5141258883845734 17.98951082084847 35.778983402495044 1.624121771868368 2.043418680451323 -3.115651854832408
lfemur -28.82762487810588 0.47946090172526823 -23.72640280502851
ltibia -6.630222423769872
lfoot 11.26481697250331 -16.7786755743751
ltoes -27.679233246189654
rfemur 5.384607471312581 5.778414958893958 34.13525130821186
rtibia 13.856463381066135
rfoot 28.09246130824874 -2.8094597430042594
rtoes -2.169658269793516
lowerback 1.0 -1.1323115384840374 -0.2719371844237173
upperback -1.8895955088176226 1.745186244645609 0.7239982360548332
thorax -6.309678562729091 0.19437743720626383 0.5863008230296639
lowerneck -18.478974962604028 -4.597917202474354 -2.101993436142537
upperneck 17.80769473709256 -4.538905702939446 0.6797973295528124
head 8.989054936855638 -2.437903430590211 0.16334326999861593
lclavicle -2.861386246374028e-14 -2.075486252932785e-14
lhumerus -67.33281782214395 -5.10018435039704 94.50226829879175
lradius 122.61423023286892
lwrist 46.4442941235874
lhand -31.84988002228526 -3.4007797591646236
lfingers nan
lthumb -5.715756727004161 26.358967701176184
rclavicle -2.6191271229109897e-14 -1.9184332692046265e-14
rhumerus -58.83738337488173 7.671861978335944 -93.65375488308268
rradius 130.72265564810368
rwrist -11.753902359644194
rhand -20.300996667512624 1.0
rfingers nan
rthumb 6.0393818082599395 11.332104777336763
136
root -0.5245482542714337 17.92745336079003 36.250423534708176 1.3455359109775058 2.2848046909463893 -2.902793747803428
lfemur -27.716389608867726 0.9743264019038973 -24.518487530851356
ltibia -6.790660691453937
lfoot 11.026883827405413 -17.852816259416432
ltoes -28.261080909063956
rfemur 4.63111900385622 5.486131650856786 33.894983820822404
rtibia 18.011124143471797
rfoot 26.975428393152043 -1.6017936453488337
rtoes -7.807597102776464
lowerback 1.0 -1.2574261824313913 -0.44388773115162783
upperback -1.620646278506214 1.6221825817101125 0.5812470963397495
thorax -6.284630139154409 0.12627817441424344 0.6255300941119883
lowerneck -18.19200881604802 -4.679951972923486 -2.0700422341404336
upperneck 16.96604453790585 -4.581545782838116 0.886148379486589
head 8.6610613045734 -2.4165266692188827 0.2505110950122002
lclavicle 2.6834851887441897e-14 3.841554478011465e-14
lhumerus -66.81021668768982 -4.8718853544733385 94.28129071279629
lradius 123.36209814818488
lwrist 45.70937989604201
lhand -32.054336405307815 -3.1777168663056896
lfingers nan
lthumb -5.802889719543925 26.606909950037064
rclavicle 2.900753057410545e-14 3.994318825279693e-14
rhumerus -59.00683948008856 7.277191068317203 -93.63830349973645
rradius 129.45940388759578
rwrist -10.762012525174539
rhand -20.19473637555049 1.0
rfingers nan
rthumb 6.123794557533993 11.309428874776195
137
root -0.5465649213636743 17.860151419582674 36.59557423834246 1.0137374306722609 2.3101922494710867 -2.4280684201695153
lfemur -26.619168378221246 1.5874404041933634 -25.494497612523613
ltibia -6.2452223216399645
lfoot 11.003535430823497 -19.12516501113481
ltoes -27.346090989536222
rfemur 3.6496214429025997 5.124915529154517 33.14758987183085
rtibia 22.422350361149938
rfoot 25.95389226786043 -0.27983393024570624
rtoes -12.764563633571637
lowerback 1.0 -1.3308779301642137 -0.9284424392976207
upperback -1.0182676651687848 1.4702039195656387 0.435939595846109
thorax -5.583779068700196 0.07063610301855328 0.8144801578794457
lowerneck -18.32199622746577 -4.671182050819521 -1.8763696313657294
upperneck 15.955980451876083 -4.556295351377959 0.8847467689140713
head 8.34599129044041 -2.365909699360793 0.24229976338343012
lclavicle 3.571347972152546e-14 1.0243650666781148e-14
lhumerus -65.811915210389 -4.621710793721608 94.00946724900234
lradius 123.99500243410061
lwrist 44.93507413514169
lhand -32.343407222019 -2.9110027345120075
lfingers nan
lthumb -6.0794440508961 26.843866980300014
rclavicle 3.816269628142226e-14 1.1838010636357892e-14
rhumerus -58.98239168224434 6.955159936634274 -93.46390729816063
rradius 128.0851439668215
rwrist -9.687580354274521
rhand -19.763315410328328 1.0
rfingers nan
rthumb 6.537105666766857 10.369926688401552
